<svg xmlns="http://www.w3.org/2000/svg"  viewBox="0 0 50 50" width="50px" height="50px"><path d="M 25 3 C 12.85 3 3 12.85 3 25 C 3 37.15 12.85 47 25 47 C 37.15 47 47 37.15 47 25 C 47 12.85 37.15 3 25 3 z M 25 11 C 32.72 11 39 17.28 39 25 C 39 32.72 32.72 39 25 39 C 17.28 39 11 32.72 11 25 C 11 17.28 17.28 11 25 11 z M 25 13 C 18.383 13 13 18.383 13 25 C 13 31.617 18.383 37 25 37 C 31.617 37 37 31.617 37 25 C 37 18.383 31.617 13 25 13 z M 22.019531 18.501953 C 22.194031 18.505203 22.366984 18.552484 22.521484 18.646484 L 31.521484 24.146484 C 31.817484 24.327484 32 24.651 32 25 C 32 25.349 31.818484 25.671516 31.521484 25.853516 L 22.521484 31.353516 C 22.361484 31.450516 22.181 31.5 22 31.5 C 21.832 31.5 21.663719 31.456094 21.511719 31.371094 C 21.195719 31.194094 21 30.861 21 30.5 L 21 19.5 C 21 19.139 21.195719 18.805906 21.511719 18.628906 C 21.670219 18.540906 21.845031 18.498703 22.019531 18.501953 z"/></svg>