<svg width="64" height="64" viewBox="0 0 108 108" fill="none" xmlns="http://www.w3.org/2000/svg">
<g clip-path="url(#clip0_21426_73)">
<path fill-rule="evenodd" clip-rule="evenodd" d="M61.5786 15.75L39.3332 35.0471V66.7339L39.114 67.6111C39.0714 67.7377 39.0283 67.8641 38.9847 67.9904C38.6472 68.9801 38.4711 69.3749 38.4565 69.1746C38.4562 69.1651 38.4562 69.1556 38.4565 69.1461L38.2921 69.3654C38.2662 69.4 38.2399 69.4344 38.2132 69.4684C38.1373 69.5649 38.0722 69.6402 38.0182 69.6943C37.0678 68.4445 36.1876 67.1429 35.3816 65.7954C34.2712 63.9227 33.4332 62.1158 32.8678 60.3746C31.7719 57.0123 31.224 53.5402 31.224 49.9586V48.8621C31.224 48.4967 31.2605 48.0946 31.3336 47.6561C31.3331 47.5033 31.3338 47.3505 31.3358 47.1978C31.3402 46.9112 31.3497 46.6722 31.3643 46.4807C31.3701 46.3972 31.3782 46.3138 31.3884 46.2307C31.4249 45.9383 31.5162 45.5729 31.6623 45.1343C31.6623 44.9574 31.6857 44.8046 31.7325 44.676C31.7439 44.6453 31.7571 44.6153 31.7719 44.5861V44.1475C31.7705 44.1475 31.7691 44.1481 31.7681 44.1491C31.767 44.1501 31.7664 44.1515 31.7664 44.153C31.7664 44.1544 31.767 44.1558 31.7681 44.1569C31.7691 44.1579 31.7705 44.1585 31.7719 44.1585C31.7851 44.1585 31.8581 43.8259 31.9911 43.1607C31.9911 42.9838 32.0145 42.8311 32.0612 42.7024C32.0727 42.6717 32.0858 42.6417 32.1007 42.6125V42.0643L32.3198 40.9679C33.1965 37.6055 34.7672 34.572 37.0319 31.8675C37.893 30.8529 38.7668 29.8492 39.6532 28.8567C39.9828 28.488 40.3145 28.121 40.6482 27.7559C41.4213 26.9078 42.2255 26.0886 43.059 25.2999C43.418 24.9605 43.7834 24.6279 44.1548 24.3021C44.2297 24.276 44.3017 24.2422 44.3696 24.2013C44.5362 24.1033 44.7203 23.9542 44.9219 23.7539C45.1805 23.4952 45.353 23.2649 45.4392 23.0632C45.4505 23.038 45.4607 23.0124 45.4698 22.9864L43.9357 23.2057C37.7669 26.0519 32.4753 30.5035 28.6137 36.0953C27.1269 38.201 25.8015 40.4162 24.649 42.7221L21.4711 54.7829V55.0021C21.4097 55.0621 21.3739 55.1476 21.3637 55.2587C21.3618 55.2828 21.3611 55.3069 21.3615 55.3311V56.2082C21.3001 56.2682 21.2643 56.3537 21.2541 56.4648C21.2523 56.4888 21.2515 56.513 21.2519 56.5371V56.9757C21.2168 61.0869 21.8269 65.1782 23.0601 69.1C24.2211 72.7096 25.9807 76.0981 28.2653 79.1236C33.16 85.7021 39.6619 89.7224 47.7711 91.1843L60.9211 91.6228C71.0758 90.6726 79.2946 85.1174 85.5773 74.9571L86.454 71.4486C84.0714 73.533 81.5138 75.4083 78.8095 77.0535C75.842 78.8326 72.9102 80.1184 70.0143 80.9107C67.7668 81.5362 65.4456 81.857 63.1128 81.8646H62.1265C62.0688 81.865 62.011 81.8636 61.9534 81.8603C61.7839 81.8486 61.667 81.82 61.6027 81.7747C61.5941 81.7689 61.586 81.7623 61.5786 81.755H61.0307C60.9539 81.7552 60.8771 81.7523 60.8006 81.7462C60.6208 81.7316 60.4784 81.698 60.3732 81.6454H59.8253C59.527 81.6455 59.2377 81.5433 59.0056 81.3559C58.947 81.3097 58.8914 81.2599 58.839 81.2068V27.5914L74.1807 32.7446L84.3719 22.3286H84.2623L84.1528 22.4382H83.7144C83.6935 22.4592 83.6708 22.4783 83.6465 22.4952C83.6202 22.5128 83.5939 22.5267 83.5676 22.5369C83.5442 22.5444 83.5198 22.5481 83.4953 22.5479H83.2761C75.5322 22.5479 68.2997 20.2819 61.5786 15.75ZM51.3873 29.7843L55.6611 26.1661L55.8803 81.2068C54.233 81.1969 52.6009 80.8924 51.0608 80.3077C50.1129 79.9526 49.1958 79.5199 48.319 79.0139C47.4773 78.4426 46.6479 77.8533 45.8315 77.2465C45.06 76.672 44.3441 76.1099 43.6836 75.5602C43.6397 75.5237 43.5959 75.4872 43.5521 75.4505C42.9064 74.9106 42.2714 74.3579 41.6476 73.7927C41.0827 73.2806 40.5302 72.7549 39.9907 72.2161C40.1811 71.9671 40.3777 71.7229 40.5802 71.4837C41.0609 70.9194 41.4854 70.5056 41.8536 70.2425L42.9494 69.1461C43.0018 69.0765 43.0544 69.007 43.1072 68.9377C43.2358 68.7667 43.3498 68.6183 43.4491 68.4926C43.4651 68.4728 43.4812 68.4531 43.4973 68.4334C43.5851 68.3237 43.6765 68.2169 43.7713 68.1132C43.8248 68.0543 43.8796 67.9965 43.9357 67.94C45.9038 65.7398 47.3897 63.9293 48.3935 62.5083C48.6349 62.1697 48.8659 61.8238 49.0861 61.4711C50.6203 59.2051 51.3873 56.6468 51.3873 53.7961V29.7843ZM31.7719 44.1475C31.7719 44.1504 31.7719 44.1526 31.7719 44.1541Z" fill="#DE192A"/>
</g>
<defs>
<clipPath id="clip0_21426_73">
<rect width="65.75" height="76.75" fill="white" transform="translate(21.25 15.75)"/>
</clipPath>
</defs>
</svg>
